<svg xmlns="http://www.w3.org/2000/svg" width="400" height="300" viewBox="0 0 400 300"><rect width="100%" height="100%" fill="#E3F0FA"/><path fill="#000000" d="M95.01 155.4h13.11l-5.02-13.71q-.37-.91-.76-2.17-.4-1.25-.8-2.7-.37 1.45-.77 2.72t-.77 2.21zm10.46-25.65 16.19 41.21h-5.93q-1 0-1.62-.5-.63-.5-.94-1.24l-3.08-8.41H93.02l-3.08 8.41q-.23.66-.89 1.2-.65.54-1.62.54h-5.99l16.22-41.21zM130.92 143l.49 2.31q.88-.88 1.86-1.64.99-.75 2.08-1.28 1.1-.53 2.35-.83 1.26-.3 2.74-.3 2.39 0 4.25.82 1.85.81 3.09 2.28 1.24 1.46 1.88 3.5t.64 4.49v18.61h-7.04v-18.61q0-2.68-1.22-4.15-1.23-1.47-3.74-1.47-1.82 0-3.42.83-1.59.83-3.02 2.25v21.15h-7.04v-29.24h4.31q1.36 0 1.79 1.28m38.99-1.74q3.25 0 5.91 1.06 2.67 1.05 4.56 2.99 1.9 1.94 2.92 4.73 1.03 2.79 1.03 6.24 0 3.48-1.03 6.27-1.02 2.8-2.92 4.76-1.89 1.97-4.56 3.02-2.66 1.06-5.91 1.06-3.28 0-5.96-1.06-2.68-1.05-4.57-3.02-1.9-1.96-2.94-4.76-1.04-2.79-1.04-6.27 0-3.45 1.04-6.24t2.94-4.73q1.89-1.94 4.57-2.99 2.68-1.06 5.96-1.06m0 24.71q3.65 0 5.4-2.45t1.75-7.18-1.75-7.21-5.4-2.48q-3.71 0-5.49 2.49-1.78 2.5-1.78 7.2t1.78 7.17q1.78 2.46 5.49 2.46m38.16-3.67v-13.11q-1.2-1.46-2.61-2.06-1.41-.59-3.03-.59-1.6 0-2.88.59-1.28.6-2.2 1.81-.91 1.22-1.39 3.08-.49 1.87-.49 4.4 0 2.57.42 4.35.41 1.78 1.18 2.91.77 1.12 1.88 1.62t2.48.5q2.19 0 3.73-.91t2.91-2.59m0-33.69h7.04v42.35h-4.3q-1.4 0-1.77-1.28l-.6-2.82q-1.77 2.02-4.06 3.27-2.29 1.26-5.34 1.26-2.4 0-4.39-1-2-1-3.44-2.89-1.44-1.9-2.22-4.69t-.78-6.39q0-3.24.88-6.04.88-2.79 2.54-4.84 1.65-2.05 3.96-3.21 2.31-1.15 5.18-1.15 2.46 0 4.19.77 1.74.77 3.11 2.08zm14.22 13.11h7.07v29.24h-7.07zm8.04-8.52q0 .91-.37 1.71t-.98 1.39q-.62.6-1.44.96-.83.36-1.77.36-.91 0-1.73-.36-.81-.36-1.41-.96-.59-.59-.95-1.39t-.36-1.71q0-.94.36-1.77t.95-1.42q.6-.6 1.41-.96.82-.36 1.73-.36.94 0 1.77.36.82.36 1.44.96.61.59.98 1.42t.37 1.77m27.22 8.52v2.91q0 .74-.26 1.45t-.68 1.17l-13.88 18.29h14.39v5.42h-22.57v-2.94q0-.48.22-1.15.23-.67.69-1.27l14.02-18.49h-14.11v-5.39zm10.74 11.26h13.28q0-1.37-.38-2.58-.39-1.21-1.16-2.13-.77-.91-1.95-1.44-1.18-.52-2.75-.52-3.05 0-4.8 1.74-1.75 1.73-2.24 4.93m17.96 4.24h-18.1q.17 2.25.8 3.89.62 1.64 1.65 2.71t2.44 1.6q1.41.52 3.12.52t2.95-.4q1.24-.39 2.16-.88.93-.48 1.63-.88t1.35-.4q.88 0 1.31.65l2.03 2.57q-1.17 1.37-2.63 2.29-1.45.93-3.03 1.49-1.58.55-3.22.78t-3.18.23q-3.05 0-5.67-1.01-2.62-1.02-4.56-3t-3.05-4.9-1.11-6.77q0-2.99.97-5.63.97-2.63 2.78-4.58 1.8-1.96 4.41-3.1t5.89-1.14q2.76 0 5.1.89 2.34.88 4.02 2.58 1.68 1.69 2.63 4.16.96 2.46.96 5.63 0 1.59-.34 2.15-.35.55-1.31.55m25.28 5.08v-13.11q-1.2-1.46-2.61-2.06-1.41-.59-3.04-.59-1.59 0-2.88.59-1.28.6-2.19 1.81-.91 1.22-1.4 3.08-.48 1.87-.48 4.4 0 2.57.41 4.35t1.18 2.91q.77 1.12 1.89 1.62 1.11.5 2.47.5 2.2 0 3.74-.91t2.91-2.59m0-33.69h7.03v42.35h-4.3q-1.4 0-1.77-1.28l-.59-2.82q-1.77 2.02-4.07 3.27-2.29 1.26-5.34 1.26-2.39 0-4.39-1-1.99-1-3.43-2.89-1.44-1.9-2.23-4.69-.78-2.79-.78-6.39 0-3.24.88-6.04.89-2.79 2.54-4.84t3.96-3.21q2.31-1.15 5.19-1.15 2.45 0 4.19.77t3.11 2.08z"/></svg>