<svg xmlns="http://www.w3.org/2000/svg" width="400" height="300" viewBox="0 0 400 300"><rect width="100%" height="100%" fill="#E3F0FA"/><path fill="#000000" d="M91.185 150.43h5.93q2.18 0 3.81-.55 1.62-.54 2.7-1.56 1.07-1.02 1.6-2.48.54-1.46.54-3.26 0-1.71-.54-3.1-.53-1.38-1.59-2.36-1.06-.97-2.68-1.48-1.63-.52-3.84-.52h-5.93zm-7.93-21.45h13.86q4.28 0 7.41 1.01 3.12 1 5.16 2.8 2.03 1.8 3.02 4.31.99 2.5.99 5.48 0 3.1-1.03 5.68t-3.1 4.44q-2.06 1.86-5.18 2.89-3.11 1.03-7.27 1.03h-5.93v15.02h-7.93zm41.8 14.22.44 3.42q1.42-2.71 3.36-4.26 1.95-1.55 4.61-1.55 2.09 0 3.36.92l-.47 5.45q-.15.54-.43.76t-.75.22q-.45 0-1.32-.15t-1.69-.15q-1.21 0-2.16.36-.94.35-1.69 1.01-.75.67-1.33 1.61-.57.95-1.08 2.16v18.64h-7.28v-30.27h4.27q1.13 0 1.57.4t.59 1.43m21.33 9.83h13.74q0-1.42-.39-2.67-.4-1.26-1.2-2.2-.8-.95-2.02-1.49-1.22-.55-2.85-.55-3.15 0-4.97 1.8-1.81 1.8-2.31 5.11m18.58 4.39h-18.73q.18 2.33.83 4.03.64 1.69 1.71 2.8 1.06 1.11 2.52 1.65 1.46.55 3.23.55t3.05-.42q1.29-.41 2.24-.91.96-.5 1.69-.91.72-.42 1.4-.42.91 0 1.35.68l2.1 2.66q-1.21 1.41-2.72 2.37-1.5.96-3.14 1.54-1.63.57-3.33.81-1.7.23-3.29.23-3.16 0-5.87-1.04-2.71-1.05-4.72-3.1t-3.16-5.08q-1.15-3.02-1.15-7 0-3.1 1.01-5.83 1-2.73 2.87-4.75t4.57-3.2 6.1-1.18q2.86 0 5.28.92 2.42.91 4.16 2.67 1.74 1.75 2.72 4.3.99 2.55.99 5.83 0 1.65-.35 2.23-.36.57-1.36.57m30.77-12.3-1.92 2.65q-.32.42-.63.65-.31.24-.9.24-.56 0-1.09-.34t-1.27-.77q-.74-.42-1.76-.76-1.01-.34-2.52-.34-1.92 0-3.36.69-1.45.69-2.41 1.99-.95 1.3-1.43 3.14-.47 1.85-.47 4.18 0 2.42.52 4.3.51 1.89 1.49 3.18.97 1.28 2.36 1.94 1.38.67 3.12.67t2.82-.43 1.82-.95q.73-.51 1.28-.94.54-.43 1.22-.43.89 0 1.33.68l2.1 2.66q-1.21 1.41-2.63 2.37t-2.94 1.54q-1.51.57-3.12.81-1.61.23-3.2.23-2.81 0-5.28-1.04-2.48-1.05-4.34-3.06-1.86-2-2.94-4.91-1.07-2.91-1.07-6.62 0-3.34.96-6.18.96-2.85 2.81-4.93 1.86-2.08 4.61-3.26 2.74-1.18 6.31-1.18 3.39 0 5.94 1.09t4.59 3.13m5.07-3.75h7.32v30.27h-7.32zm8.32-8.82q0 .95-.38 1.77-.38.83-1.02 1.45-.63.62-1.49.99-.85.36-1.83.36-.94 0-1.78-.36-.84-.37-1.46-.99t-.99-1.45q-.37-.82-.37-1.77 0-.97.37-1.83.37-.85.99-1.47t1.46-.99 1.78-.37q.98 0 1.83.37.86.37 1.49.99.64.62 1.02 1.47.38.86.38 1.83m26.55 12.1-1.65 2.62q-.29.47-.62.67-.32.19-.82.19-.54 0-1.14-.3-.6-.29-1.4-.66t-1.82-.66q-1.01-.3-2.4-.3-2.15 0-3.38.92-1.22.91-1.22 2.38 0 .98.63 1.64.64.67 1.68 1.17 1.05.5 2.38.9t2.7.87 2.7 1.07q1.32.61 2.37 1.54t1.68 2.23q.64 1.29.64 3.12 0 2.19-.78 4.03-.79 1.84-2.32 3.19-1.53 1.34-3.79 2.09t-5.21.75q-1.56 0-3.05-.28t-2.86-.78-2.54-1.18q-1.16-.68-2.05-1.48l1.68-2.77q.33-.5.77-.77.44-.26 1.12-.26t1.28.38q.61.39 1.4.83.8.44 1.88.82 1.07.39 2.73.39 1.29 0 2.22-.31t1.54-.81q.6-.5.88-1.17.28-.66.28-1.37 0-1.06-.63-1.74-.64-.68-1.68-1.18-1.05-.5-2.39-.9t-2.75-.87q-1.4-.47-2.74-1.11-1.34-.63-2.39-1.6-1.05-.98-1.68-2.39-.63-1.42-.63-3.43 0-1.85.73-3.54.74-1.68 2.17-2.93t3.57-2.01q2.14-.75 4.94-.75 3.13 0 5.7 1.03 2.56 1.04 4.27 2.72m6.05-3.28h7.32v30.27h-7.32zm8.32-8.82q0 .95-.38 1.77-.39.83-1.02 1.45-.64.62-1.49.99-.86.36-1.83.36-.94 0-1.79-.36-.84-.37-1.46-.99-.61-.62-.98-1.45-.37-.82-.37-1.77 0-.97.37-1.83.37-.85.98-1.47.62-.62 1.46-.99.85-.37 1.79-.37.97 0 1.83.37.85.37 1.49.99.63.62 1.02 1.47.38.86.38 1.83m19.82 8.35q3.37 0 6.12 1.09 2.76 1.09 4.72 3.1 1.97 2.01 3.03 4.9t1.06 6.46q0 3.6-1.06 6.49t-3.03 4.92q-1.96 2.04-4.72 3.13-2.75 1.09-6.12 1.09-3.39 0-6.16-1.09t-4.74-3.13q-1.96-2.03-3.04-4.92-1.07-2.89-1.07-6.49 0-3.57 1.07-6.46 1.08-2.89 3.04-4.9 1.97-2.01 4.74-3.1t6.16-1.09m0 25.58q3.78 0 5.59-2.54 1.82-2.54 1.82-7.43 0-4.9-1.82-7.47-1.81-2.56-5.59-2.56-3.83 0-5.68 2.58-1.84 2.58-1.84 7.45 0 4.86 1.84 7.42 1.85 2.55 5.68 2.55m26.82-23.78.5 2.39q.92-.91 1.93-1.7 1.02-.78 2.16-1.32 1.13-.55 2.43-.86t2.83-.31q2.48 0 4.4.84t3.2 2.36 1.95 3.63q.66 2.11.66 4.65v19.26h-7.29v-19.26q0-2.78-1.27-4.3-1.26-1.52-3.86-1.52-1.89 0-3.54.86t-3.13 2.33v21.89h-7.28v-30.27h4.45q1.42 0 1.86 1.33"/></svg>